<?xml version="1.0" encoding="UTF-8" standalone="no"?>
<!DOCTYPE svg PUBLIC "-//W3C//DTD SVG 1.1//EN"
 "http://www.w3.org/Graphics/SVG/1.1/DTD/svg11.dtd">
<!-- Generated by graphviz version 2.38.0 (20140413.2041)
 -->
<!-- Title: data_flow Pages: 1 -->
<svg viewBox="0.00 0.00 352.01 98.00" xmlns="http://www.w3.org/2000/svg" xmlns:xlink="http://www.w3.org/1999/xlink">
<g id="graph0" class="graph" transform="scale(1 1) rotate(0) translate(4 94)">
<title>data_flow</title>
<polygon fill="white" stroke="none" points="-4,4 -4,-94 348.014,-94 348.014,4 -4,4"/>
<!-- d2recharts -->
<g id="node1" class="node"><title>d2recharts</title>
<ellipse fill="lightyellow" stroke="black" cx="202.763" cy="-45" rx="51.003" ry="18"/>
<text text-anchor="middle" x="202.763" y="-40.8" font-family="Times,serif" font-size="14.00">d2recharts</text>
</g>
<!-- charts -->
<g id="node4" class="node"><title>charts</title>
<polygon fill="none" stroke="black" points="344.014,-63 290.014,-63 290.014,-27 344.014,-27 344.014,-63"/>
<text text-anchor="middle" x="317.014" y="-40.8" font-family="Times,serif" font-size="14.00">charts</text>
</g>
<!-- d2recharts&#45;&gt;charts -->
<g id="edge3" class="edge"><title>d2recharts&#45;&gt;charts</title>
<path fill="none" stroke="black" d="M254.306,-45C262.884,-45 271.637,-45 279.754,-45"/>
<polygon fill="black" stroke="black" points="279.99,-48.5001 289.99,-45 279.99,-41.5001 279.99,-48.5001"/>
</g>
<!-- features you want -->
<g id="node2" class="node"><title>features you want</title>
<polygon fill="none" stroke="black" points="115.269,-90 0.242974,-90 0.242974,-54 115.269,-54 115.269,-90"/>
<text text-anchor="middle" x="57.756" y="-67.8" font-family="Times,serif" font-size="14.00">features you want</text>
</g>
<!-- features you want&#45;&gt;d2recharts -->
<g id="edge1" class="edge"><title>features you want&#45;&gt;d2recharts</title>
<path fill="none" stroke="black" d="M115.276,-61.3289C125.807,-59.3406 136.793,-57.2665 147.262,-55.29"/>
<polygon fill="black" stroke="black" points="147.932,-58.7253 157.109,-53.4308 146.633,-51.8468 147.932,-58.7253"/>
</g>
<!-- data set -->
<g id="node3" class="node"><title>data set</title>
<polygon fill="none" stroke="black" points="87.1268,-36 28.3852,-36 28.3852,-0 87.1268,-0 87.1268,-36"/>
<text text-anchor="middle" x="57.756" y="-13.8" font-family="Times,serif" font-size="14.00">data set</text>
</g>
<!-- data set&#45;&gt;d2recharts -->
<g id="edge2" class="edge"><title>data set&#45;&gt;d2recharts</title>
<path fill="none" stroke="black" d="M87.0096,-23.3343C104.218,-26.5833 126.78,-30.843 147.34,-34.7249"/>
<polygon fill="black" stroke="black" points="146.765,-38.178 157.24,-36.5941 148.063,-31.2995 146.765,-38.178"/>
</g>
</g>
</svg>
